<?xml version="1.0" encoding="utf-8"?>
<!-- Generator: Adobe Illustrator 20.1.0, SVG Export Plug-In . SVG Version: 6.00 Build 0)  -->
<svg version="1.1" id="Layer_1" xmlns="http://www.w3.org/2000/svg" xmlns:xlink="http://www.w3.org/1999/xlink" x="0px" y="0px"
	 viewBox="0 0 160.2 23.5" style="enable-background:new 0 0 160.2 23.5;" xml:space="preserve">
<style type="text/css">
	.st0{fill-rule:evenodd;clip-rule:evenodd;fill:url(#SVGID_1_);}
</style>
<linearGradient id="SVGID_1_" gradientUnits="userSpaceOnUse" x1="0" y1="11.7298" x2="160.2405" y2="11.7298">
	<stop  offset="0.4039" style="stop-color:#E6E6E6"/>
	<stop  offset="0.4253" style="stop-color:#DBDBDB"/>
	<stop  offset="0.5017" style="stop-color:#B7B7B7"/>
	<stop  offset="0.5825" style="stop-color:#999999"/>
	<stop  offset="0.6678" style="stop-color:#838383"/>
	<stop  offset="0.7596" style="stop-color:#737373"/>
	<stop  offset="0.8626" style="stop-color:#696969"/>
	<stop  offset="1" style="stop-color:#666666"/>
</linearGradient>
<path class="st0" d="M87.9,10.9c2.9,1.8,2.7,5.1,2.7,5.1v2.2c-0.4,5.4-7.9,5.3-7.9,5.3c-7.9,0-7.7-5.2-7.7-5.2v-2.7h6.1v1.9
	c0,1.6,1.5,1.6,1.5,1.6c1.7,0.1,1.8-1.5,1.8-1.5c0.2-1.6-1.5-2.6-1.5-2.6c-1.7-0.9-4.6-2.4-4.6-2.4c-1.4-0.9-2-1.8-2-1.8
	c-1-1.3-0.9-3.2-0.9-3.2V5.9c0-2.4,0.6-3,0.6-3c1.6-3,7.3-2.7,7.3-2.7c7.2,0.2,6.8,4.7,6.8,4.7l0,2.7h-5.7V5.7
	c0-1.3-1.6-1.4-1.6-1.4c-1.2,0-1.5,0.8-1.5,0.8c-0.7,1.3,0.5,2.4,0.5,2.4c0.6,0.7,3.6,2,3.6,2C86.3,9.9,87.9,10.9,87.9,10.9
	L87.9,10.9z M58.5,0.8l-1.9,12h-0.4L54.3,0.9h-9.6l-0.5,21.8h5.7L50,6.3h0.4l3,16.4h6l3-16.4h0.4l0.1,16.4h5.7L68,0.8H58.5L58.5,0.8
	z M24.8,0.9L21,22.7h6.1l2.2-16.9h0.5l2.2,16.9h6.1L34.4,0.9H24.8L24.8,0.9z M152.9,10.6v3.2h1.6v3.4c0,1.7-1.4,1.7-1.4,1.7
	c-1.8,0-1.7-1.6-1.7-1.6V5.4c0-1.2,1.6-1.3,1.6-1.3c1.5,0,1.5,1.5,1.5,1.5v1.8h5.7c0.2-3.5-0.5-4.4-0.5-4.4c-1.4-3.2-6.8-3-6.8-3
	c-8.3,0-7.4,6.4-7.4,6.4v11.5c0.2,6,8.3,5.4,8.5,5.4c3.6-0.4,4.7-1.6,4.7-1.6c1-0.8,1.3-1.8,1.3-1.8c0.3-0.6,0.4-2.5,0.4-2.5v-6.8
	H152.9L152.9,10.6z M133.8,14.1h-0.3l-5.8-13.3h-7v21.9h5.7l-0.3-13.3h0.3l6,13.3h6.8V0.8h-5.8L133.8,14.1L133.8,14.1z M106.9,17.3
	c0,0,0.1,1.8-1.6,1.8c0,0-1.8,0.1-1.8-1.8l0-16.5h-6.2v16.3c0,0-0.6,6.2,8.1,6.2c0,0,7.6,0.1,7.6-5.9V0.8h-6.1V17.3L106.9,17.3z
	 M12.9,10.9c0,0-1.6-1-2.5-1.3c0,0-3-1.4-3.6-2c0,0-1.2-1.1-0.5-2.4c0,0,0.3-0.8,1.5-0.8c0,0,1.6,0.1,1.6,1.4v1.9h5.7l0-2.7
	c0,0,0.4-4.5-6.8-4.7c0,0-0.5,0-1.3,0c0,0-4.4,0.2-5.9,2.6c0,0,0,0,0,0c0,0-0.6,0.7-0.6,3v1.7c0,0-0.1,2,0.9,3.2c0,0,0.6,0.8,2,1.8
	c0,0,2.8,1.5,4.6,2.4c0,0,1.7,1,1.5,2.6c0,0-0.1,1.6-1.8,1.5c0,0-1.5-0.1-1.5-1.6v-1.9H0v2.7c0,0-0.2,5.2,7.7,5.2
	c0,0,7.5,0.2,7.9-5.3V16C15.5,16,15.8,12.6,12.9,10.9L12.9,10.9z"/>
<g>
</g>
<g>
</g>
</svg>
